<?xml version="1.0" encoding="UTF-8"?>
<svg version="1.1" xmlns="http://www.w3.org/2000/svg" width="512" height="512">
<path d="M0 0 C0.63276855 0.23605957 1.26553711 0.47211914 1.91748047 0.71533203 C17.18580613 6.54095887 30.75238888 15.2190546 43 26 C43.83917969 26.72960937 44.67835938 27.45921875 45.54296875 28.2109375 C72.04183661 51.62854166 98.42477401 85.98908349 101.28540039 122.65844727 C101.40110586 126.5067161 101.41677756 130.33775757 101.375 134.1875 C101.37001495 134.86697693 101.36502991 135.54645386 101.3598938 136.246521 C101.12506669 163.62053764 93.40431522 186.21744561 80 210 C81.87558594 210.58007812 81.87558594 210.58007812 83.7890625 211.171875 C89.5327257 213.09017315 94.92770395 215.61989956 100.375 218.25 C101.39505127 218.74161621 102.41510254 219.23323242 103.46606445 219.73974609 C110.32101267 223.08616971 116.80115404 226.53318453 123 231 C124.43085937 231.99193359 124.43085937 231.99193359 125.890625 233.00390625 C148.84504019 249.45457047 159.48100869 268.40504344 165 296 C165 313.16 165 330.32 165 348 C83.16 348 1.32 348 -83 348 C-117.42508755 224.64343627 -117.42508755 224.64343627 -123.45496941 202.83908749 C-124.86276186 197.74901082 -126.27263266 192.65951167 -127.68359375 187.5703125 C-127.95439632 186.59328432 -128.2251989 185.61625614 -128.50420761 184.60962105 C-131.89540852 172.38868891 -135.3789844 160.20053581 -138.99572945 148.04446983 C-140.26515597 143.76523384 -141.51501744 139.48023149 -142.76512432 135.19531727 C-144.05786457 130.777397 -145.40770482 126.37948144 -146.76928711 121.98217773 C-152.50953388 102.75560865 -152.50953388 102.75560865 -147.62353516 92.80786133 C-147.08776855 91.88126709 -146.55200195 90.95467285 -146 90 C-145.24392092 88.36026716 -144.49218933 86.71851822 -143.74609375 85.07421875 C-142.9900024 83.60498466 -142.22031703 82.14267024 -141.4375 80.6875 C-141.01259277 79.89190674 -140.58768555 79.09631348 -140.14990234 78.27661133 C-121.602857 44.40123516 -90.83159852 13.21179601 -54 0 C-52.89269531 -0.41121094 -51.78539062 -0.82242188 -50.64453125 -1.24609375 C-34.54077899 -6.41144825 -15.79813047 -5.9485698 0 0 Z M-91.08789062 118.45166016 C-92.36642073 119.48695611 -93.65702632 120.50750861 -94.95898438 121.51318359 C-102.31491031 127.0520105 -102.31491031 127.0520105 -106.9765625 134.75390625 C-107.1515552 138.06495242 -106.71689305 140.75743757 -106 144 C-105.85643066 144.69512695 -105.71286133 145.39025391 -105.56494141 146.10644531 C-100.40618208 170.4240752 -89.04001914 192.35094273 -74 212 C-73.28328125 212.94101562 -72.5665625 213.88203125 -71.828125 214.8515625 C-63.73890976 225.09593363 -54.69868893 234.31046516 -44.1875 242.0625 C-43.2910376 242.72378906 -43.2910376 242.72378906 -42.37646484 243.3984375 C-34.77261183 249.01093804 -34.77261183 249.01093804 -25.84765625 250.9296875 C0.43652485 242.34856939 20.66182358 213.69106402 34 191 C34.36367676 190.38398926 34.72735352 189.76797852 35.10205078 189.13330078 C44.07578227 173.72432299 55.91084283 150.16310899 52 132 C49.91937065 128.57602137 47.14637215 126.4338114 44 124 C42.94597179 123.12995497 41.89401149 122.25740076 40.84375 121.3828125 C-1.0880664 86.9678139 -48.05160499 83.47645249 -91.08789062 118.45166016 Z " fill="#000000" transform="translate(283,132)"/>
<path d="M0 0 C1.37502686 0.2180127 1.37502686 0.2180127 2.77783203 0.44042969 C26.1496949 4.28269492 48.74792344 11.53030115 70 22 C70.69706055 22.33966797 71.39412109 22.67933594 72.11230469 23.02929688 C97.97412094 35.76455165 119.91422421 53.51428619 140 74 C139.67 74.99 139.34 75.98 139 77 C132.9950951 76.41786544 127.25307607 75.51567223 121.3828125 74.14453125 C119.72470706 73.76796156 118.06649954 73.39184112 116.40820312 73.01611328 C115.11668335 72.72127045 115.11668335 72.72127045 113.79907227 72.42047119 C77.80804167 64.2376296 40.8637725 56.94929798 3.83203125 56.796875 C2.71350266 56.79117493 1.59497406 56.78547485 0.44255066 56.77960205 C-1.91288328 56.77022499 -4.2683299 56.76364743 -6.6237793 56.75976562 C-10.13420099 56.75014605 -13.64401402 56.71908638 -17.15429688 56.6875 C-62.68296187 56.47390331 -107.87537949 65.81770637 -147.41796875 88.96875 C-150.19865895 90.59051653 -152.95946297 91.91367221 -156 93 C-161.53346447 75.33688826 -166.52864932 57.54140765 -171.42759705 39.69415283 C-172.59235588 35.45495745 -173.78598632 31.22527389 -175 27 C-121.97377573 3.48837226 -57.9707484 -9.44882168 0 0 Z " fill="#000000" transform="translate(258,34)"/>
<path d="M0 0 C5.0175376 2.32957103 7.19031588 5.32821692 10 10 C11.23065186 13.40771484 11.23065186 13.40771484 12.27636719 17.2109375 C12.47302979 17.91442825 12.66969238 18.61791901 12.87231445 19.34272766 C13.5241012 21.68410938 14.16041175 24.02941075 14.796875 26.375 C15.26199175 28.05731547 15.72810212 29.73935649 16.19512939 31.42114258 C17.19788413 35.03997075 18.19386 38.66057097 19.18457031 42.28271484 C20.77121902 48.08337004 22.37272014 53.87986002 23.9765625 59.67578125 C25.93249555 66.74761525 27.8850365 73.82036782 29.83313751 80.8943634 C33.22431409 93.20709472 36.64156358 105.51236308 40.078125 117.8125 C40.32333767 118.69020491 40.56855034 119.56790981 40.8211937 120.47221184 C42.05394529 124.88408673 43.28720391 129.29581969 44.52069092 133.70748901 C46.76395576 141.73169936 49.00256377 149.75720939 51.24163437 157.78259087 C52.49129913 162.2615275 53.7412509 166.74038404 54.99121094 171.21923828 C55.23895956 172.10698031 55.48670818 172.99472235 55.74196434 173.90936565 C58.26455099 182.9482285 60.78772261 191.98692804 63.31089592 201.02562714 C65.58240471 209.1628788 67.85374202 217.30017833 70.125 225.4375 C70.37347561 226.32771599 70.62195122 227.21793198 70.87795639 228.13512421 C76.50068557 248.28003447 82.12050673 268.42574893 87.73046875 288.57421875 C87.96372738 289.41197405 88.19698601 290.24972935 88.43731308 291.11287117 C90.51518182 298.57580479 92.59279215 306.03881032 94.6697998 313.50198364 C99.40518734 330.51727569 104.14525164 347.53122435 108.90482903 364.53976822 C109.58896388 366.98456235 110.27296026 369.42939518 110.95692444 371.87423706 C112.88960271 378.78217358 114.82283809 385.68995099 116.75925732 392.5968399 C117.53245843 395.35561493 118.30464901 398.11467208 119.07658195 400.87380219 C119.60503402 402.76127881 120.13484512 404.64837478 120.66468811 406.53546143 C120.97498459 407.6450824 121.28528107 408.75470337 121.60498047 409.89794922 C121.87615692 410.86546112 122.14733337 411.83297302 122.42672729 412.82980347 C123 415 123 415 123 416 C111.45 416 99.9 416 88 416 C77.55307027 378.97826602 67.18330607 341.93557361 56.875 304.875 C56.58853355 303.84511459 56.30206711 302.81522919 56.00691986 301.75413513 C55.13269448 298.61115831 54.25848347 295.46817749 53.38427734 292.32519531 C52.50787128 289.17430601 51.63146253 286.02341745 50.75504303 282.87253189 C50.17081964 280.77213951 49.58660639 278.6717443 49.00240326 276.57134628 C42.95093815 254.81509202 36.88438676 233.06306249 30.8125 211.3125 C30.32076784 209.55093451 29.8290381 207.78936835 29.33731079 206.02780151 C26.88591215 197.24600891 24.43424089 188.46429244 21.98242188 179.68261719 C19.43263033 170.54997763 16.88329233 161.41721154 14.33430481 152.28434753 C13.29041559 148.54416348 12.24636521 144.80402447 11.20219421 141.06391907 C8.65165232 131.92750171 6.10337242 122.79046387 3.55981445 113.65209961 C2.58312621 110.14429014 1.60613316 106.6365657 0.62890625 103.12890625 C0.39095652 102.27471792 0.15300678 101.42052959 -0.09215355 100.54045677 C-3.24064785 89.24332382 -6.42764005 77.95788249 -9.65196419 66.68216896 C-10.87276759 62.40713405 -12.08579551 58.12988565 -13.2985487 53.852561 C-14.22693501 50.58151167 -15.16292353 47.31309818 -16.10983276 44.04733276 C-17.12884561 40.53276517 -18.12886204 37.01329463 -19.125 33.4921875 C-19.4205629 32.49319931 -19.71612579 31.49421112 -20.02064514 30.46495056 C-22.19499875 22.66724147 -23.88872585 14.0680249 -20.375 6.5 C-14.13633057 -0.06702045 -8.87259444 -1.19438771 0 0 Z " fill="#000000" transform="translate(54,64)"/>
<path d="M0 0 C0.99 0.33 1.98 0.66 3 1 C3.78801918 2.62675953 3.78801918 2.62675953 4.37905884 4.77583313 C4.60891983 5.5876001 4.83878082 6.39936707 5.0756073 7.23573303 C5.31572037 8.13287521 5.55583344 9.0300174 5.80322266 9.9543457 C6.06540085 10.8941629 6.32757904 11.8339801 6.59770203 12.80227661 C7.46519708 15.92358415 8.31463916 19.04951184 9.1640625 22.17578125 C9.76164011 24.33983359 10.3603176 26.50358249 10.96005249 28.66703796 C12.53919191 34.37533044 14.10303194 40.0877084 15.66387939 45.80102539 C17.25353506 51.60886623 18.85796107 57.41262149 20.4609375 63.21679688 C22.80008397 71.69494276 25.13373459 80.17456543 27.45556641 88.6574707 C27.69972794 89.54854019 27.94388947 90.43960968 28.19544983 91.35768127 C28.41967117 92.17790771 28.64389252 92.99813416 28.87490845 93.84321594 C29.06919748 94.55354131 29.26348652 95.26386667 29.4636631 95.99571705 C29.99770038 97.99140636 30.49894396 99.99577584 31 102 C12.85 102 -5.3 102 -24 102 C-24.0825 93.770625 -24.165 85.54125 -24.25 77.0625 C-24.28641602 74.50250244 -24.32283203 71.94250488 -24.36035156 69.30493164 C-24.57643022 43.13004501 -18.79185414 19.32876426 0 0 Z " fill="#000000" transform="translate(88,378)"/>
</svg>
